<svg xmlns="http://www.w3.org/2000/svg" viewBox="0 0 24 24">
  <style>.mi{fill:none;stroke:currentColor;stroke-width:1.7;stroke-linecap:round;stroke-linejoin:round}.fill{fill:currentColor;stroke:none}</style>
  <symbol id="building-slot-hall" viewBox="0 0 24 24"><g class="mi"><rect x="4" y="3" width="16" height="18" rx="3"/><rect x="7" y="6" width="10" height="7" rx="1.5"/><path d="M9 9h.01M12 9h.01M15 9h.01M8 17h5M17 15v4"/></g></symbol>
  <symbol id="building-roulette-table" viewBox="0 0 24 24"><g class="mi"><ellipse cx="12" cy="10" rx="8" ry="6"/><ellipse cx="12" cy="10" rx="3" ry="2.2"/><path d="M12 4v4m7 2h-4m-3 6v5M8 15l-2 6m10-6 2 6M5 8l4 1m10-1-4 1"/></g></symbol>
  <symbol id="building-blackjack-lounge" viewBox="0 0 24 24"><g class="mi"><path d="M4 15V8a3 3 0 0 1 3-3h10a3 3 0 0 1 3 3v7M3 15h18v4H3zM7 19v2m10-2v2"/><path d="m9 8 1.5 2L12 8l1.5 2L15 8"/></g></symbol>
  <symbol id="building-vip-hall" viewBox="0 0 24 24"><g class="mi"><path d="m4 8 4 3 4-6 4 6 4-3-2 10H6L4 8Z"/><path d="M5 21h14M8 18v3m8-3v3M9 14h6"/></g></symbol>
  <symbol id="building-casino-bar" viewBox="0 0 24 24"><g class="mi"><path d="M4 5h16l-6 7v7M10 19h8M7 8h10M17 4l2-2"/><circle cx="17" cy="5" r="1.5"/></g></symbol>
  <symbol id="building-security-center" viewBox="0 0 24 24"><g class="mi"><path d="M12 3 5 6v5c0 5 3 8 7 10 4-2 7-5 7-10V6l-7-3Z"/><path d="m9 12 2 2 4-5M12 6v2"/></g></symbol>
  <symbol id="building-hotel" viewBox="0 0 24 24"><g class="mi"><path d="M5 21V4h14v17M3 21h18M8 8h2m4 0h2M8 12h2m4 0h2M8 16h2m4 0h2"/></g></symbol>
  <symbol id="building-marina" viewBox="0 0 24 24"><g class="mi"><path d="M12 3v13m0-11 6 7h-6m0-6-5 6h5M4 17h16l-3 4H7l-3-4Z"/><path d="M2 22c2-1 4-1 6 0 2-1 4-1 6 0 2-1 4-1 6 0"/></g></symbol>
  <symbol id="building-private-vault" viewBox="0 0 24 24"><g class="mi"><rect x="3" y="4" width="18" height="17" rx="3"/><circle cx="12" cy="12" r="4"/><path d="M12 8v3l2 2M6 8h2M6 17h2M18 8h-2M18 17h-2"/></g></symbol>
  <symbol id="building-penthouse" viewBox="0 0 24 24"><g class="mi"><path d="M3 21h18M5 21V9l7-6 7 6v12M8 11h8M8 15h3m2 0h3M9 21v-3h6v3"/><path d="m16 6 2-3 2 3"/></g></symbol>
</svg>
